<?xml version="1.0" standalone="no"?>
<!DOCTYPE svg PUBLIC "-//W3C//DTD SVG 20010904//EN"
 "http://www.w3.org/TR/2001/REC-SVG-20010904/DTD/svg10.dtd">
<svg version="1.0" xmlns="http://www.w3.org/2000/svg"
 width="264.000000pt" height="52.000000pt" viewBox="0 0 264.000000 52.000000"
 preserveAspectRatio="xMidYMid meet">

<g transform="translate(0.000000,52.000000) scale(0.100000,-0.100000)"
fill="#000000" stroke="none">
<path d="M96 465 c-23 -24 -24 -326 0 -349 38 -39 74 -5 74 70 l0 54 49 0 c54
0 74 15 69 52 -3 21 -9 23 -60 26 l-58 3 0 39 0 39 76 3 c60 2 79 7 88 21 8
12 8 22 0 35 -16 25 -214 31 -238 7z"/>
<path d="M962 468 c-5 -7 -13 -38 -17 -69 l-7 -57 -27 11 c-35 13 -72 3 -108
-27 l-28 -25 -28 27 c-24 22 -37 27 -82 27 -45 0 -58 -4 -83 -28 -26 -25 -30
-26 -42 -12 -58 69 -166 55 -209 -27 -30 -56 -24 -101 20 -146 51 -52 120 -55
177 -7 26 22 31 23 43 9 19 -23 64 -44 94 -44 30 0 61 14 92 43 l23 20 26 -26
c30 -30 78 -42 113 -29 16 6 35 5 54 -2 52 -20 59 4 55 192 -2 131 -6 165 -18
172 -21 13 -36 12 -48 -2z m-477 -208 c41 -46 -29 -116 -75 -75 -22 20 -27 64
-8 83 19 19 63 14 83 -8z m219 4 c22 -21 20 -57 -3 -78 -44 -40 -108 13 -83
68 14 30 61 36 86 10z m232 -9 c35 -54 -37 -115 -78 -65 -10 12 -18 29 -18 37
0 55 66 74 96 28z"/>
<path d="M1082 464 c-42 -29 -19 -78 35 -72 23 2 29 9 31 33 3 19 -2 33 -14
42 -22 16 -25 16 -52 -3z"/>
<path d="M1545 464 c-13 -14 -15 -41 -13 -181 3 -145 5 -167 21 -177 33 -21
52 4 55 73 l3 61 54 0 c54 0 85 16 85 44 0 23 -24 35 -80 38 l-55 3 0 35 0 35
80 5 c74 5 80 7 83 28 6 44 -13 52 -119 52 -76 0 -101 -4 -114 -16z"/>
<path d="M1810 460 c-6 -12 -9 -81 -8 -181 3 -141 5 -163 21 -173 12 -8 22 -8
35 0 15 10 17 32 20 179 2 115 -1 172 -9 181 -17 20 -47 17 -59 -6z"/>
<path d="M1076 338 c-17 -23 -22 -135 -10 -196 7 -36 33 -49 64 -32 18 10 20
20 20 111 0 55 -5 109 -10 120 -14 26 -45 24 -64 -3z"/>
<path d="M1244 341 c-46 -28 -64 -59 -64 -112 0 -105 122 -168 200 -103 29 25
30 28 15 44 -15 17 -20 17 -51 4 -25 -11 -40 -12 -54 -4 -36 20 -21 29 53 32
70 3 72 4 75 30 5 40 -35 105 -71 118 -43 15 -68 12 -103 -9z m87 -61 c32 -18
21 -30 -26 -30 -46 0 -54 7 -33 28 15 15 33 15 59 2z"/>
<path d="M1973 340 c-41 -24 -63 -67 -63 -121 0 -33 6 -47 33 -74 56 -56 124
-59 186 -7 66 55 48 167 -33 206 -45 21 -84 20 -123 -4z m101 -76 c31 -30 7
-94 -35 -94 -40 0 -66 69 -37 98 17 17 54 15 72 -4z"/>
<path d="M2190 346 c-21 -26 60 -238 93 -244 18 -4 57 23 57 39 0 4 5 20 11
36 l11 28 23 -52 c41 -92 72 -71 135 93 27 69 30 86 20 99 -30 36 -70 8 -91
-62 -7 -24 -15 -43 -19 -43 -3 0 -12 26 -20 58 -12 44 -20 58 -35 60 -31 4
-45 -11 -58 -62 -7 -26 -16 -48 -21 -49 -5 -1 -16 18 -25 43 -9 25 -20 51 -24
58 -11 16 -42 15 -57 -2z"/>
</g>
</svg>
