<?xml version="1.0" standalone="no"?>
<!DOCTYPE svg PUBLIC "-//W3C//DTD SVG 20010904//EN"
 "http://www.w3.org/TR/2001/REC-SVG-20010904/DTD/svg10.dtd">
<svg version="1.0" xmlns="http://www.w3.org/2000/svg"
 width="500.000000pt" height="500.000000pt" viewBox="0 0 500.000000 500.000000"
 preserveAspectRatio="xMidYMid meet">

<g transform="translate(0.000000,500.000000) scale(0.100000,-0.100000)"
fill="#000000" stroke="none">
<path d="M1726 4059 c-71 -17 -154 -70 -221 -140 -68 -73 -84 -98 -118 -188
-21 -55 -22 -71 -25 -736 -2 -456 1 -701 8 -745 16 -99 62 -184 141 -262 116
-114 182 -138 399 -142 174 -4 257 4 271 25 13 21 11 63 -5 85 -13 17 -31 19
-208 24 -185 5 -195 7 -250 33 -77 38 -134 96 -171 175 l-32 67 0 700 0 700
34 73 c39 83 82 126 167 168 l59 29 730 0 730 0 59 -29 c83 -40 127 -84 167
-163 l34 -68 0 -710 0 -710 -35 -69 c-41 -79 -90 -128 -169 -165 -51 -24 -70
-26 -212 -31 -136 -4 -160 -8 -178 -24 -26 -24 -27 -57 -3 -87 17 -20 29 -23
129 -27 60 -2 147 1 194 7 218 29 393 196 420 400 11 90 11 1318 -1 1409 -13
102 -55 184 -134 264 -35 36 -85 77 -109 91 -97 57 -96 57 -897 56 -404 -1
-752 -5 -774 -10z"/>
<path d="M2398 3760 c-163 -29 -319 -111 -442 -229 -101 -98 -152 -169 -206
-285 -91 -194 -118 -470 -50 -506 31 -17 62 -11 104 18 34 23 48 27 100 25 40
-2 68 2 83 12 12 8 43 15 68 15 84 0 130 43 130 121 0 50 -31 90 -81 107 -83
28 -154 -25 -154 -115 l0 -43 -51 0 -51 0 7 63 c30 266 212 494 467 585 62 22
90 26 188 26 120 1 182 -11 221 -43 l23 -18 -22 -37 c-30 -51 -29 -83 4 -98
24 -11 29 -10 48 16 11 15 51 58 89 95 61 61 67 71 67 108 0 34 -6 46 -35 72
-46 40 -116 75 -191 95 -70 20 -250 29 -316 16z m258 -75 c82 -19 114 -35 114
-56 0 -30 -17 -31 -105 -9 -59 15 -109 21 -163 19 -43 -2 -83 0 -90 5 -19 12
-14 36 11 46 34 14 165 11 233 -5z"/>
<path d="M3137 3738 c-16 -38 -42 -63 -74 -72 -33 -10 -28 -22 15 -43 23 -11
44 -32 55 -55 10 -21 22 -38 26 -38 5 0 15 18 24 40 11 28 26 44 51 57 20 9
36 20 36 23 0 3 -16 14 -36 23 -25 13 -40 29 -51 57 -9 22 -20 40 -24 40 -5 0
-15 -15 -22 -32z"/>
<path d="M1803 3723 c-12 -26 -31 -44 -57 -56 l-39 -19 39 -21 c22 -13 46 -36
54 -54 8 -18 18 -33 22 -33 3 0 15 16 27 35 11 19 36 43 56 52 19 9 35 20 35
23 0 4 -18 14 -39 22 -30 12 -42 24 -52 52 -7 20 -17 36 -21 36 -4 0 -16 -17
-25 -37z"/>
<path d="M3243 3483 c-16 -6 -17 -55 -1 -71 17 -17 44 -15 62 4 39 38 -8 89
-61 67z"/>
<path d="M1682 3448 c-28 -28 -3 -72 39 -66 30 4 47 33 33 56 -14 21 -55 27
-72 10z"/>
<path d="M2300 3440 c-15 -27 4 -60 33 -60 29 0 47 18 47 46 0 37 -62 48 -80
14z"/>
<path d="M3035 3448 c-29 -15 -45 -39 -45 -64 0 -18 -23 -33 -140 -90 -142
-68 -161 -85 -141 -123 18 -33 47 -34 109 -5 31 14 92 41 135 59 l77 33 24
-31 c61 -81 106 -212 106 -309 l0 -48 -51 0 c-79 0 -108 -25 -89 -76 10 -24
11 -25 83 -18 69 6 74 5 104 -20 40 -34 86 -34 118 -1 23 22 25 32 25 114 0
143 -37 284 -106 410 -50 90 -101 151 -140 167 -39 17 -43 17 -69 2z"/>
<path d="M2474 3394 c-61 -30 -74 -116 -25 -165 64 -64 181 -21 181 66 0 91
-76 139 -156 99z"/>
<path d="M2154 3311 c-79 -36 -94 -148 -27 -201 101 -79 242 30 187 145 -12
26 -30 43 -58 56 -50 23 -52 23 -102 0z"/>
<path d="M2922 3137 c-30 -32 -29 -87 1 -115 34 -32 89 -30 116 4 44 56 11
134 -58 134 -26 0 -44 -7 -59 -23z"/>
<path d="M2420 3074 c-139 -59 -135 -56 -138 -93 -3 -25 1 -33 21 -40 14 -5
33 -8 43 -5 14 4 31 -9 59 -43 22 -26 65 -75 97 -108 31 -33 73 -81 95 -107
33 -40 140 -161 236 -266 l30 -34 -31 -25 c-37 -28 -40 -45 -13 -72 22 -22 49
-19 79 10 20 18 21 18 61 -28 23 -25 41 -50 41 -55 0 -21 -96 -52 -165 -52
l-70 -1 -5 40 c-4 34 -9 40 -32 43 -44 5 -49 -19 -47 -232 1 -106 -1 -198 -5
-205 -6 -9 -42 -16 -48 -8 -1 1 -5 137 -8 302 l-5 300 -30 0 -30 0 -3 -303
c-2 -289 -1 -305 18 -331 43 -61 127 -62 170 -2 17 24 20 47 22 167 l3 139 85
6 c100 6 142 24 219 97 44 42 52 54 46 73 -10 29 -59 89 -302 361 -109 122
-229 257 -266 300 l-69 79 61 26 c54 23 61 30 61 54 0 29 -31 59 -60 59 -8 0
-62 -21 -120 -46z"/>
<path d="M2715 3026 c-35 -15 -55 -52 -55 -102 0 -51 53 -104 104 -104 65 0
116 53 116 121 0 22 -10 41 -34 65 -38 38 -77 44 -131 20z"/>
<path d="M2220 2801 c-20 -38 16 -76 58 -60 27 10 32 63 6 73 -29 11 -53 6
-64 -13z"/>
<path d="M2379 2717 c-22 -14 -39 -38 -49 -64 -13 -38 -12 -46 3 -78 18 -39
69 -75 105 -75 57 0 122 64 122 120 0 56 -65 120 -123 120 -13 0 -39 -10 -58
-23z"/>
<path d="M2872 2718 c-18 -18 -14 -53 8 -73 44 -40 107 25 69 71 -14 17 -60
19 -77 2z"/>
<path d="M2055 2695 c-120 -43 -112 -212 13 -253 18 -6 52 -33 76 -59 l43 -47
74 -4 c104 -5 123 -14 148 -73 19 -43 25 -49 51 -49 50 0 54 62 8 131 -34 50
-79 69 -165 69 -65 0 -73 2 -92 26 l-21 27 21 33 c45 74 9 182 -68 203 -46 13
-39 13 -88 -4z"/>
<path d="M1818 2660 c-14 -11 -37 -24 -52 -30 -53 -20 -12 -67 44 -50 67 21
90 33 95 51 15 46 -42 65 -87 29z"/>
<path d="M3056 2601 c-25 -38 -46 -79 -46 -92 0 -27 103 -139 127 -139 27 0
53 21 53 43 0 14 -16 36 -42 59 l-43 36 21 29 c17 22 28 27 55 25 98 -8 112
-7 123 11 15 24 -3 50 -40 58 -16 3 -43 13 -61 22 -18 9 -48 17 -67 17 -32 0
-38 -6 -80 -69z"/>
<path d="M2629 2514 c-17 -21 0 -49 32 -49 27 0 37 28 19 50 -16 19 -34 19
-51 -1z"/>
<path d="M1774 2478 c-7 -25 -19 -38 -52 -53 -23 -11 -42 -23 -42 -28 0 -4 15
-14 33 -22 40 -16 53 -31 62 -68 10 -37 20 -34 42 11 12 24 31 43 56 55 20 9
37 21 37 26 0 4 -18 15 -40 24 -30 11 -44 25 -55 51 -19 45 -30 45 -41 4z"/>
<path d="M1969 2321 c-39 -39 -41 -112 -5 -170 59 -93 247 -122 277 -44 14 38
11 100 -7 117 -30 31 -64 12 -64 -36 0 -36 -20 -44 -69 -30 -48 15 -81 46 -81
78 0 24 2 25 38 19 45 -7 68 11 58 48 -13 52 -102 63 -147 18z"/>
<path d="M3242 2338 c-28 -28 -7 -78 33 -78 27 0 45 18 45 45 0 27 -18 45 -45
45 -12 0 -26 -5 -33 -12z"/>
<path d="M2300 2220 c-8 -15 -10 -87 -8 -230 3 -231 5 -237 76 -267 30 -12 38
-12 70 4 61 30 78 94 29 109 -15 5 -25 0 -40 -20 -15 -22 -41 -34 -49 -23 -1
1 -4 101 -8 222 l-5 220 -27 3 c-19 2 -30 -3 -38 -18z"/>
<path d="M2447 2093 c-7 -7 -10 -123 -3 -123 2 0 11 -3 19 -6 25 -9 47 24 47
70 0 23 -5 47 -12 54 -13 13 -41 16 -51 5z"/>
<path d="M1322 1564 c-21 -15 -22 -21 -22 -174 0 -131 3 -161 16 -174 40 -40
74 -6 74 75 l0 59 54 0 c60 0 71 8 62 46 -6 22 -11 24 -61 24 l-55 0 0 40 0
40 69 0 c71 0 101 14 101 45 0 25 -37 35 -127 35 -64 0 -95 -4 -111 -16z"/>
<path d="M2182 1568 c-7 -7 -12 -35 -12 -63 0 -61 -4 -67 -38 -54 -34 13 -75
3 -107 -27 -27 -25 -45 -31 -45 -14 0 16 -62 50 -93 50 -32 0 -77 -21 -97 -45
-12 -14 -15 -14 -34 3 -12 11 -31 25 -43 31 -87 45 -203 -54 -174 -148 15 -51
51 -88 95 -96 46 -9 77 -1 114 30 26 22 31 23 43 9 19 -23 64 -44 96 -44 31 0
93 34 93 50 0 18 22 11 57 -20 34 -30 68 -37 108 -21 10 4 32 3 47 -3 19 -7
31 -7 38 0 7 7 12 75 13 179 1 153 -1 169 -18 181 -23 17 -28 17 -43 2z m-477
-208 c40 -45 -20 -109 -71 -75 -26 17 -33 62 -12 83 18 18 63 14 83 -8z m219
4 c33 -32 9 -86 -39 -86 -30 0 -55 24 -55 53 0 25 27 49 55 49 13 0 31 -7 39
-16z m231 -4 c35 -38 -6 -96 -58 -82 -28 7 -43 46 -29 77 14 31 61 34 87 5z"/>
<path d="M2766 1564 c-14 -14 -16 -39 -14 -181 3 -145 5 -167 21 -177 32 -21
51 4 57 75 l5 64 59 5 c105 9 103 66 -2 72 l-57 3 -3 37 -3 37 77 3 c60 2 79
7 88 21 8 12 8 22 0 35 -16 25 -204 31 -228 6z"/>
<path d="M3036 1564 c-13 -13 -16 -43 -16 -170 0 -159 7 -194 38 -194 38 0 42
19 42 192 0 155 -1 168 -19 178 -25 13 -27 13 -45 -6z"/>
<path d="M2290 1555 c-15 -18 -6 -41 23 -59 25 -16 52 5 52 40 0 25 -4 29 -31
32 -19 2 -36 -3 -44 -13z"/>
<path d="M2302 1448 c-8 -8 -12 -50 -12 -124 0 -93 3 -113 16 -118 24 -9 31
-8 48 10 23 22 23 206 0 228 -19 19 -36 20 -52 4z"/>
<path d="M2463 1441 c-40 -25 -63 -68 -63 -119 0 -100 134 -159 206 -91 22 21
23 24 8 40 -12 14 -21 16 -35 9 -26 -15 -75 -12 -89 5 -10 12 -1 15 61 17 80
3 97 16 85 62 -19 77 -109 117 -173 77z m88 -61 c32 -18 21 -30 -26 -30 -46 0
-54 7 -33 28 15 15 33 15 59 2z"/>
<path d="M3220 1452 c-110 -49 -121 -185 -20 -237 88 -46 200 30 187 127 -10
78 -102 139 -167 110z m75 -88 c39 -40 -14 -110 -60 -80 -23 16 -32 61 -14 82
15 19 54 18 74 -2z"/>
<path d="M3410 1445 c-10 -13 -9 -24 9 -66 11 -29 21 -57 21 -63 0 -6 11 -35
25 -64 32 -68 59 -69 91 -4 11 24 24 44 28 45 5 1 16 -18 25 -43 12 -32 23
-46 38 -48 27 -4 39 14 88 135 31 76 35 95 25 108 -30 36 -64 11 -91 -67 -7
-21 -16 -38 -19 -38 -3 0 -12 22 -19 49 -23 90 -63 93 -91 8 -8 -26 -19 -46
-25 -45 -5 1 -19 25 -30 53 -22 54 -51 69 -75 40z"/>
</g>
</svg>
